<svg xmlns="http://www.w3.org/2000/svg" width="1200" height="800" viewBox="0 0 1200 800" fill="none">
  <defs>
    <linearGradient id="sky" x1="0" y1="0" x2="0" y2="800">
      <stop offset="0" stop-color="#e0f2fe"/>
      <stop offset="0.55" stop-color="#cffafe"/>
      <stop offset="1" stop-color="#fef3c7"/>
    </linearGradient>
    <linearGradient id="ball" x1="470" y1="140" x2="740" y2="520">
      <stop offset="0" stop-color="#14b8a6"/>
      <stop offset="0.55" stop-color="#fb7185"/>
      <stop offset="1" stop-color="#f59e0b"/>
    </linearGradient>
    <filter id="shadow" x="-20%" y="-20%" width="140%" height="140%">
      <feDropShadow dx="0" dy="18" stdDeviation="18" flood-color="#0f172a" flood-opacity="0.18"/>
    </filter>
  </defs>
  <rect width="1200" height="800" fill="url(#sky)"/>
  <path d="M0 610 C 210 520, 420 700, 620 610 C 820 520, 980 650, 1200 570 L1200 800 L0 800 Z" fill="#0f766e" opacity="0.14"/>
  <path d="M0 660 C 240 580, 450 760, 680 660 C 910 560, 1040 700, 1200 640 L1200 800 L0 800 Z" fill="#155a44" opacity="0.12"/>
  <g filter="url(#shadow)">
    <path d="M600 150 C 735 150, 840 255, 840 390 C 840 525, 725 610, 600 610 C 475 610, 360 525, 360 390 C 360 255, 465 150, 600 150 Z" fill="url(#ball)"/>
    <path d="M600 150 C 670 150, 740 190, 790 255 C 840 320, 840 460, 790 525 C 740 590, 670 610, 600 610" stroke="#ffffff" stroke-opacity="0.22" stroke-width="26"/>
    <path d="M600 150 C 530 150, 460 190, 410 255 C 360 320, 360 460, 410 525 C 460 590, 530 610, 600 610" stroke="#0f172a" stroke-opacity="0.10" stroke-width="26"/>
    <path d="M528 598 C 556 645, 578 676, 600 698 C 622 676, 644 645, 672 598" stroke="#334155" stroke-width="10" stroke-linecap="round" opacity="0.55"/>
    <path d="M520 612 L560 740" stroke="#334155" stroke-width="8" stroke-linecap="round" opacity="0.55"/>
    <path d="M680 612 L640 740" stroke="#334155" stroke-width="8" stroke-linecap="round" opacity="0.55"/>
    <rect x="545" y="730" width="110" height="60" rx="14" fill="#ffffff" opacity="0.92"/>
    <path d="M555 742 H645" stroke="#94a3b8" stroke-width="8" stroke-linecap="round"/>
  </g>
  <circle cx="190" cy="170" r="54" fill="#ffffff" opacity="0.45"/>
  <circle cx="1020" cy="210" r="68" fill="#ffffff" opacity="0.35"/>
  <circle cx="890" cy="130" r="36" fill="#ffffff" opacity="0.35"/>
</svg>
